<svg xmlns="http://www.w3.org/2000/svg" xmlns:xlink="http://www.w3.org/1999/xlink" width="500" zoomAndPan="magnify" viewBox="0 0 375 374.999991" height="500" preserveAspectRatio="xMidYMid meet" version="1.0"><defs><clipPath id="id1"><path d="M 148 128.183594 L 199 128.183594 L 199 174 L 148 174 Z M 148 128.183594 " clip-rule="nonzero"/></clipPath><clipPath id="id2"><path d="M 214 156 L 262.5 156 L 262.5 193 L 214 193 Z M 214 156 " clip-rule="nonzero"/></clipPath><clipPath id="id3"><path d="M 213 155 L 262.5 155 L 262.5 194 L 213 194 Z M 213 155 " clip-rule="nonzero"/></clipPath><clipPath id="id4"><path d="M 214 156 L 262.5 156 L 262.5 193 L 214 193 Z M 214 156 " clip-rule="nonzero"/></clipPath><clipPath id="id5"><path d="M 112.5 177 L 203 177 L 203 246.683594 L 112.5 246.683594 Z M 112.5 177 " clip-rule="nonzero"/></clipPath></defs><path fill="#141e61" d="M 163.785156 130.679688 C 169.636719 128.347656 176.109375 129.945312 181.648438 132.398438 C 187.824219 135.296875 194.136719 139.515625 196.671875 146.140625 C 197.808594 148.84375 197.0625 152 195.109375 154.117188 C 193.570312 155.429688 191.386719 155.0625 189.542969 154.875 C 185.363281 153.980469 182.800781 150.265625 179.554688 147.832031 C 176.738281 145.355469 173.738281 142.671875 169.925781 141.988281 C 166.523438 141.425781 163.570312 143.675781 161.390625 146.007812 C 158.109375 150.050781 156.039062 154.90625 154.421875 159.8125 C 153.371094 164.089844 151.136719 168.171875 151.40625 172.6875 C 151.089844 168.523438 149.898438 164.46875 149.785156 160.285156 C 149.570312 154.890625 150.257812 149.464844 151.613281 144.246094 C 154.101562 138.65625 157.945312 133.121094 163.785156 130.679688 Z M 163.785156 130.679688 " fill-opacity="1" fill-rule="nonzero"/><g clip-path="url(#id1)"><path stroke-linecap="butt" transform="matrix(0.578704, 0, 0, 0.578075, 101.041668, 101.356457)" fill="none" stroke-linejoin="miter" d="M 108.420756 50.725667 C 118.532257 46.691533 129.717007 49.455286 139.288508 53.698898 C 149.960259 58.712847 160.86826 66.010777 165.24901 77.471232 C 167.21326 82.147314 165.92401 87.607247 162.54901 91.269727 C 159.88951 93.540194 156.11626 92.905004 152.930259 92.580652 C 145.707759 91.03322 141.279758 84.606987 135.670508 80.397162 C 130.803758 76.113006 125.619757 71.470711 119.031757 70.288176 C 113.152506 69.315118 108.049506 73.207348 104.283005 77.241482 C 98.613005 84.235333 95.035505 92.63471 92.241005 101.121934 C 90.425254 108.521225 86.564254 115.582649 87.030004 123.394138 C 86.483254 116.19081 84.424504 109.176687 84.228754 101.939572 C 83.857504 92.607681 85.045504 83.221731 87.387754 74.19392 C 91.687504 64.524162 98.329505 54.949006 108.420756 50.725667 Z M 108.420756 50.725667 " stroke="#000000" stroke-width="0.1" stroke-opacity="1" stroke-miterlimit="10"/></g><path fill="#141e61" d="M 163.785156 130.679688 C 169.636719 128.347656 176.109375 129.945312 181.648438 132.398438 C 187.824219 135.296875 194.136719 139.515625 196.671875 146.140625 C 197.808594 148.84375 197.0625 152 195.109375 154.117188 C 193.570312 155.429688 191.386719 155.0625 189.542969 154.875 C 185.363281 153.980469 182.800781 150.265625 179.554688 147.832031 C 176.738281 145.355469 173.738281 142.671875 169.925781 141.988281 C 166.523438 141.425781 163.570312 143.675781 161.390625 146.007812 C 158.109375 150.050781 156.039062 154.90625 154.421875 159.8125 C 153.371094 164.089844 151.136719 168.171875 151.40625 172.6875 C 151.089844 168.523438 149.898438 164.46875 149.785156 160.285156 C 149.570312 154.890625 150.257812 149.464844 151.613281 144.246094 C 154.101562 138.65625 157.945312 133.121094 163.785156 130.679688 Z M 163.785156 130.679688 " fill-opacity="1" fill-rule="nonzero"/><path stroke-linecap="butt" transform="matrix(0.578704, 0, 0, 0.578075, 101.041668, 101.356457)" fill-opacity="1" fill="#141e61" fill-rule="nonzero" stroke-linejoin="miter" d="M 200.652763 56.915393 C 207.976514 56.063968 215.671514 58.935839 220.585515 64.449831 C 223.920015 68.551539 226.161015 73.720906 226.120515 79.065965 C 225.479265 85.559772 222.212265 91.979248 216.758264 95.709302 C 210.325514 100.263751 201.543763 101.209779 194.307763 98.0541 C 183.561762 93.972664 177.304511 80.140383 182.826012 69.686772 C 185.937762 62.584804 193.099512 57.956024 200.652763 56.915393 Z M 200.652763 56.915393 " stroke="#000000" stroke-width="0.1" stroke-opacity="1" stroke-miterlimit="10"/><path fill="#141e61" d="M 217.160156 134.257812 C 221.398438 133.765625 225.851562 135.425781 228.695312 138.613281 C 230.625 140.984375 231.921875 143.972656 231.898438 147.0625 C 231.527344 150.816406 229.636719 154.527344 226.480469 156.683594 C 222.757812 159.316406 217.675781 159.863281 213.488281 158.039062 C 207.269531 155.679688 203.648438 147.683594 206.84375 141.640625 C 208.644531 137.535156 212.789062 134.859375 217.160156 134.257812 Z M 217.160156 134.257812 " fill-opacity="1" fill-rule="nonzero"/><g clip-path="url(#id2)"><path fill="#141e61" d="M 261.273438 156.078125 C 261.523438 156.0625 261.777344 156.058594 262.03125 156.0625 C 261.925781 158.289062 262.507812 160.515625 262.140625 162.730469 C 261.550781 166.546875 260.015625 170.125 258.347656 173.578125 C 254.691406 181.730469 247.777344 188.460938 239.390625 191.625 C 235.539062 192.984375 230.972656 192.878906 227.503906 190.5625 C 221.894531 186.90625 217.484375 181.324219 215.554688 174.882812 C 214.332031 171.402344 214.289062 167.226562 216.390625 164.074219 C 217.441406 162.691406 218.859375 161.148438 220.753906 161.25 C 222.714844 161.433594 224.46875 162.609375 225.652344 164.140625 C 228.441406 167.796875 229.023438 172.550781 231.320312 176.453125 C 233.246094 178.972656 236.351562 181.960938 239.789062 180.488281 C 243.933594 178.738281 247.417969 175.765625 250.785156 172.847656 C 255.042969 169.1875 258.007812 164.304688 260.371094 159.277344 C 260.847656 158.269531 261.179688 157.191406 261.273438 156.078125 Z M 261.273438 156.078125 " fill-opacity="1" fill-rule="nonzero"/></g><g clip-path="url(#id3)"><path stroke-linecap="butt" transform="matrix(0.578704, 0, 0, 0.578075, 101.041668, 101.356457)" fill="none" stroke-linejoin="miter" d="M 276.880519 94.661913 C 277.312519 94.634884 277.751269 94.628127 278.190019 94.634884 C 278.007769 98.48657 279.013519 102.338256 278.379019 106.169669 C 277.359769 112.771594 274.707019 118.96132 271.824769 124.934812 C 265.506768 139.037388 253.559267 150.68029 239.067016 156.153738 C 232.411516 158.505294 224.520765 158.322846 218.526764 154.315741 C 208.833764 147.990868 201.213013 138.334624 197.878513 127.191765 C 195.765763 121.170972 195.691513 113.947372 199.323013 108.494195 C 201.138763 106.102096 203.589013 103.432945 206.862764 103.608636 C 210.251264 103.926231 213.282014 105.960192 215.327264 108.60907 C 220.146765 114.933944 221.152515 123.157631 225.121515 129.908217 C 228.449265 134.266703 233.815516 139.436071 239.755516 136.888552 C 246.917267 133.861263 252.938267 128.718924 258.756768 123.671189 C 266.114268 117.339558 271.237519 108.892879 275.321269 100.196178 C 276.144769 98.452783 276.718519 96.587756 276.880519 94.661913 Z M 276.880519 94.661913 " stroke="#000000" stroke-width="0.1" stroke-opacity="1" stroke-miterlimit="10"/></g><g clip-path="url(#id4)"><path fill="#141e61" d="M 261.273438 156.078125 C 261.523438 156.0625 261.777344 156.058594 262.03125 156.0625 C 261.925781 158.289062 262.507812 160.515625 262.140625 162.730469 C 261.550781 166.546875 260.015625 170.125 258.347656 173.578125 C 254.691406 181.730469 247.777344 188.460938 239.390625 191.625 C 235.539062 192.984375 230.972656 192.878906 227.503906 190.5625 C 221.894531 186.90625 217.484375 181.324219 215.554688 174.882812 C 214.332031 171.402344 214.289062 167.226562 216.390625 164.074219 C 217.441406 162.691406 218.859375 161.148438 220.753906 161.25 C 222.714844 161.433594 224.46875 162.609375 225.652344 164.140625 C 228.441406 167.796875 229.023438 172.550781 231.320312 176.453125 C 233.246094 178.972656 236.351562 181.960938 239.789062 180.488281 C 243.933594 178.738281 247.417969 175.765625 250.785156 172.847656 C 255.042969 169.1875 258.007812 164.304688 260.371094 159.277344 C 260.847656 158.269531 261.179688 157.191406 261.273438 156.078125 Z M 261.273438 156.078125 " fill-opacity="1" fill-rule="nonzero"/></g><g clip-path="url(#id5)"><path stroke-linecap="butt" transform="matrix(0.578704, 0, 0, 0.578075, 101.041668, 101.356457)" fill-opacity="1" fill="#141e61" fill-rule="nonzero" stroke-linejoin="miter" d="M 98.079755 135.091099 C 102.339005 131.482678 108.623256 131.83406 113.577756 133.63827 C 118.552507 135.753319 123.790507 137.388596 128.333257 140.395614 C 135.380258 144.916276 142.116758 149.977527 148.151259 155.802357 C 154.962009 161.302834 161.28676 167.445259 166.70701 174.337749 C 170.703011 179.04086 174.881261 184.541338 174.564011 191.055417 C 171.607511 200.549484 163.47376 207.489276 155.009259 212.138328 C 143.790759 217.848284 131.269508 220.111994 119.274757 223.612298 C 114.084006 225.288119 108.636756 225.89628 103.243505 226.477411 C 97.134755 226.808521 90.992254 228.065387 84.890254 226.984212 C 88.798504 224.146128 93.537005 222.875747 97.836755 220.774213 C 110.182506 215.442669 121.806007 208.610995 133.834508 202.617232 C 138.930758 200.150801 143.919009 197.008637 146.835009 191.98793 C 146.679759 190.879726 146.524509 189.778279 146.382759 188.683589 C 142.953759 185.217072 138.728258 182.737127 134.367758 180.635594 C 129.285007 184.838661 123.419257 188.034885 118.734757 192.731238 C 105.882756 202.299636 91.674004 209.800288 77.985003 218.078033 C 59.557502 228.430283 42.122251 240.505656 23.343749 250.249745 C 22.250249 250.641671 21.129749 250.945752 19.982249 251.168744 C 27.197999 243.309954 35.595 236.626941 42.689251 228.660033 C 52.935751 217.929372 63.182252 207.191953 73.874253 196.893762 C 85.167004 186.021196 96.135755 174.831036 106.598256 163.161103 C 102.183755 159.079668 96.486755 155.322585 95.150255 149.065285 C 93.874505 144.335145 94.623755 138.746822 98.079755 135.091099 Z M 98.079755 135.091099 " stroke="#000000" stroke-width="0.1" stroke-opacity="1" stroke-miterlimit="10"/><path fill="#141e61" d="M 157.800781 179.449219 C 160.265625 177.363281 163.902344 177.566406 166.769531 178.609375 C 169.648438 179.832031 172.679688 180.777344 175.308594 182.515625 C 179.386719 185.128906 183.285156 188.054688 186.777344 191.421875 C 190.71875 194.601562 194.378906 198.152344 197.515625 202.136719 C 199.828125 204.855469 202.246094 208.035156 202.0625 211.800781 C 200.351562 217.289062 195.644531 221.300781 190.746094 223.988281 C 184.253906 227.289062 177.007812 228.597656 170.066406 230.621094 C 167.0625 231.589844 163.910156 231.941406 160.789062 232.277344 C 157.253906 232.46875 153.699219 233.195312 150.167969 232.570312 C 152.429688 230.929688 155.171875 230.195312 157.660156 228.980469 C 164.804688 225.898438 171.53125 221.949219 178.492188 218.484375 C 181.441406 217.058594 184.328125 215.242188 186.015625 212.339844 C 185.925781 211.699219 185.835938 211.0625 185.753906 210.429688 C 183.769531 208.425781 181.324219 206.992188 178.800781 205.777344 C 175.859375 208.207031 172.464844 210.054688 169.753906 212.769531 C 162.316406 218.300781 154.09375 222.636719 146.171875 227.421875 C 135.507812 233.40625 125.417969 240.386719 114.550781 246.019531 C 113.917969 246.246094 113.269531 246.421875 112.605469 246.550781 C 116.78125 242.007812 121.640625 238.144531 125.746094 233.539062 C 131.675781 227.335938 137.605469 221.128906 143.792969 215.175781 C 150.328125 208.890625 156.675781 202.421875 162.730469 195.675781 C 160.175781 193.316406 156.878906 191.144531 156.105469 187.527344 C 155.367188 184.792969 155.800781 181.5625 157.800781 179.449219 Z M 157.800781 179.449219 " fill-opacity="1" fill-rule="nonzero"/></g></svg>