<svg xmlns="http://www.w3.org/2000/svg" xmlns:xlink="http://www.w3.org/1999/xlink" width="500" zoomAndPan="magnify" viewBox="0 0 375 374.999991" height="500" preserveAspectRatio="xMidYMid meet" version="1.0"><defs><clipPath id="id1"><path d="M 62 0 L 270 0 L 270 367.5 L 62 367.5 Z M 62 0 " clip-rule="nonzero"/></clipPath></defs><g clip-path="url(#id1)"><path fill="#545454" d="M 269.265625 351.277344 C 269.265625 360.253906 261.933594 367.585938 252.960938 367.585938 L 78.730469 367.585938 C 69.757812 367.585938 62.429688 360.253906 62.429688 351.277344 L 62.429688 16.367188 C 62.429688 7.390625 69.773438 0.0585938 78.730469 0.0585938 L 252.960938 0.0585938 C 261.933594 0.0585938 269.265625 7.390625 269.265625 16.367188 Z M 269.265625 351.277344 " fill-opacity="1" fill-rule="nonzero"/></g><path fill="#f0eeed" d="M 62.429688 32.644531 L 269.265625 32.644531 L 269.265625 323.9375 L 62.429688 323.9375 Z M 62.429688 32.644531 " fill-opacity="1" fill-rule="nonzero"/><path fill="#ffffff" d="M 180.589844 345.746094 C 180.589844 353.886719 173.992188 360.484375 165.855469 360.484375 C 157.714844 360.484375 151.105469 353.886719 151.105469 345.746094 C 151.105469 337.605469 157.703125 331.007812 165.855469 331.007812 C 173.992188 330.996094 180.589844 337.605469 180.589844 345.746094 Z M 180.589844 345.746094 " fill-opacity="1" fill-rule="nonzero"/><path fill="#000000" d="M 198.085938 22.140625 C 198.074219 22.140625 198.058594 22.140625 198.058594 22.140625 C 193.824219 22.128906 191.546875 19.835938 190.035156 18.324219 C 188.753906 17.042969 188.292969 16.625 187.082031 16.625 C 185.832031 16.582031 185.414062 17.027344 184.132812 18.308594 C 182.617188 19.808594 180.328125 22.085938 176.125 22.085938 C 176.109375 22.085938 176.09375 22.085938 176.09375 22.085938 C 171.859375 22.070312 169.585938 19.78125 168.070312 18.265625 C 166.789062 16.984375 166.328125 16.566406 165.132812 16.566406 C 165.132812 16.566406 165.121094 16.566406 165.121094 16.566406 C 163.9375 16.566406 163.464844 16.96875 162.179688 18.253906 C 160.667969 19.765625 158.378906 21.96875 154.128906 22.027344 C 149.894531 22.011719 147.621094 19.722656 146.109375 18.210938 C 144.828125 16.925781 144.367188 16.523438 143.167969 16.507812 C 143.167969 16.507812 143.15625 16.507812 143.15625 16.507812 C 141.972656 16.507812 141.5 16.914062 140.21875 18.195312 C 138.703125 19.691406 136.414062 21.96875 132.210938 21.96875 C 132.195312 21.96875 132.179688 21.96875 132.179688 21.96875 C 127.945312 21.953125 125.671875 19.664062 124.160156 18.152344 C 122.875 16.871094 122.414062 16.464844 121.21875 16.453125 C 119.234375 16.453125 117.621094 14.824219 117.632812 12.835938 C 117.632812 10.847656 119.246094 9.25 121.234375 9.25 C 121.234375 9.25 121.234375 9.25 121.25 9.25 C 125.484375 9.261719 127.757812 11.554688 129.269531 13.066406 C 130.554688 14.347656 131.015625 14.75 132.210938 14.765625 C 132.210938 14.765625 132.222656 14.765625 132.222656 14.765625 C 133.40625 14.765625 133.878906 14.363281 135.160156 13.082031 C 136.675781 11.582031 138.964844 9.304688 143.167969 9.304688 C 143.183594 9.304688 143.199219 9.304688 143.199219 9.304688 C 147.433594 9.320312 149.707031 11.609375 151.222656 13.125 C 152.503906 14.40625 152.964844 14.808594 154.160156 14.824219 C 154.160156 14.824219 154.171875 14.824219 154.171875 14.824219 C 155.355469 14.824219 155.828125 14.421875 157.113281 13.136719 C 158.625 11.640625 160.914062 9.363281 165.121094 9.363281 C 165.132812 9.363281 165.148438 9.363281 165.148438 9.363281 C 169.382812 9.378906 171.660156 11.667969 173.171875 13.179688 C 174.453125 14.464844 174.914062 14.882812 176.109375 14.882812 C 176.109375 14.882812 176.125 14.882812 176.125 14.882812 C 177.304688 14.882812 177.78125 14.476562 179.0625 13.195312 C 180.574219 11.699219 182.863281 9.421875 187.070312 9.421875 C 187.082031 9.421875 187.097656 9.421875 187.097656 9.421875 C 191.332031 9.4375 193.609375 11.726562 195.121094 13.238281 C 196.402344 14.519531 196.863281 14.9375 198.074219 14.9375 C 198.074219 14.9375 198.085938 14.9375 198.085938 14.9375 C 199.28125 14.9375 199.742188 14.535156 201.027344 13.253906 C 202.539062 11.753906 204.828125 9.480469 209.035156 9.480469 C 209.046875 9.480469 209.0625 9.480469 209.0625 9.480469 C 211.050781 9.480469 212.664062 11.105469 212.648438 13.09375 C 212.648438 15.082031 211.035156 16.683594 209.046875 16.683594 C 209.035156 16.683594 209.035156 16.683594 209.019531 16.683594 C 207.824219 16.683594 207.363281 17.085938 206.082031 18.367188 C 204.582031 19.867188 202.308594 22.140625 198.085938 22.140625 Z M 198.085938 22.140625 " fill-opacity="1" fill-rule="nonzero"/><path fill="#545454" d="M 344.894531 151.652344 C 344.894531 203.414062 276.511719 304.804688 269.28125 304.804688 C 262.84375 304.804688 195.265625 208.789062 193.664062 152.1875 C 192.414062 108.03125 224.113281 72.792969 268.273438 72.792969 C 312.429688 72.808594 344.894531 107.484375 344.894531 151.652344 Z M 344.894531 151.652344 " fill-opacity="1" fill-rule="nonzero"/><path fill="#000000" d="M 269.28125 308.40625 C 267.507812 308.40625 264.828125 308.40625 252.070312 291.046875 C 243.816406 279.824219 234.757812 265.777344 226.53125 251.515625 C 213.3125 228.554688 190.988281 185.132812 190.050781 152.285156 C 189.386719 129.109375 197.367188 107.773438 212.503906 92.199219 C 226.921875 77.359375 246.726562 69.191406 268.257812 69.191406 C 314 69.191406 348.480469 104.644531 348.480469 151.652344 C 348.480469 182.019531 326.199219 225.929688 312.921875 249.414062 C 304.539062 264.238281 295.347656 278.742188 287.054688 290.253906 C 274.003906 308.40625 271.050781 308.40625 269.28125 308.40625 Z M 268.273438 76.410156 C 248.699219 76.410156 230.722656 83.800781 217.675781 97.226562 C 203.90625 111.386719 196.660156 130.878906 197.265625 152.085938 C 198.765625 204.695312 258.289062 291.019531 269.335938 300.683594 C 280.960938 290.832031 341.308594 199.078125 341.308594 151.652344 C 341.292969 108.75 309.910156 76.410156 268.273438 76.410156 Z M 268.273438 76.410156 " fill-opacity="1" fill-rule="nonzero"/><path fill="#f0eeed" d="M 314.433594 148.167969 C 314.433594 149.648438 314.359375 151.121094 314.214844 152.59375 C 314.070312 154.066406 313.851562 155.53125 313.566406 156.980469 C 313.277344 158.433594 312.917969 159.867188 312.488281 161.28125 C 312.058594 162.695312 311.5625 164.089844 310.996094 165.457031 C 310.429688 166.824219 309.796875 168.160156 309.097656 169.464844 C 308.402344 170.769531 307.640625 172.035156 306.820312 173.265625 C 306 174.496094 305.117188 175.683594 304.179688 176.828125 C 303.242188 177.972656 302.25 179.066406 301.203125 180.113281 C 300.15625 181.160156 299.0625 182.152344 297.917969 183.089844 C 296.777344 184.027344 295.589844 184.910156 294.359375 185.730469 C 293.128906 186.550781 291.863281 187.3125 290.558594 188.011719 C 289.253906 188.707031 287.917969 189.339844 286.550781 189.90625 C 285.183594 190.472656 283.792969 190.96875 282.378906 191.398438 C 280.960938 191.828125 279.527344 192.1875 278.078125 192.476562 C 276.625 192.765625 275.164062 192.980469 273.691406 193.125 C 272.222656 193.273438 270.746094 193.34375 269.265625 193.34375 C 267.785156 193.34375 266.3125 193.273438 264.839844 193.125 C 263.367188 192.980469 261.90625 192.765625 260.453125 192.476562 C 259.003906 192.1875 257.570312 191.828125 256.15625 191.398438 C 254.738281 190.96875 253.347656 190.472656 251.980469 189.90625 C 250.613281 189.339844 249.277344 188.707031 247.972656 188.011719 C 246.667969 187.3125 245.402344 186.550781 244.171875 185.730469 C 242.941406 184.910156 241.753906 184.027344 240.613281 183.089844 C 239.46875 182.152344 238.375 181.160156 237.328125 180.113281 C 236.28125 179.066406 235.289062 177.972656 234.351562 176.828125 C 233.414062 175.683594 232.53125 174.496094 231.710938 173.265625 C 230.890625 172.035156 230.128906 170.769531 229.433594 169.464844 C 228.734375 168.160156 228.101562 166.824219 227.535156 165.457031 C 226.972656 164.089844 226.472656 162.695312 226.042969 161.28125 C 225.613281 159.867188 225.253906 158.433594 224.964844 156.980469 C 224.679688 155.53125 224.460938 154.066406 224.316406 152.59375 C 224.171875 151.121094 224.097656 149.648438 224.097656 148.167969 C 224.097656 146.6875 224.171875 145.210938 224.316406 143.738281 C 224.460938 142.265625 224.679688 140.804688 224.964844 139.351562 C 225.253906 137.902344 225.613281 136.46875 226.042969 135.050781 C 226.472656 133.636719 226.972656 132.246094 227.535156 130.878906 C 228.101562 129.511719 228.734375 128.175781 229.433594 126.871094 C 230.128906 125.566406 230.890625 124.296875 231.710938 123.066406 C 232.53125 121.835938 233.414062 120.648438 234.351562 119.507812 C 235.289062 118.363281 236.28125 117.269531 237.328125 116.222656 C 238.375 115.175781 239.46875 114.183594 240.613281 113.242188 C 241.753906 112.304688 242.941406 111.425781 244.171875 110.601562 C 245.402344 109.78125 246.667969 109.019531 247.972656 108.324219 C 249.277344 107.625 250.613281 106.996094 251.980469 106.429688 C 253.347656 105.863281 254.738281 105.363281 256.15625 104.933594 C 257.570312 104.503906 259.003906 104.144531 260.453125 103.855469 C 261.90625 103.570312 263.367188 103.351562 264.839844 103.207031 C 266.3125 103.0625 267.785156 102.988281 269.265625 102.988281 C 270.746094 102.988281 272.222656 103.0625 273.691406 103.207031 C 275.164062 103.351562 276.625 103.570312 278.078125 103.855469 C 279.527344 104.144531 280.960938 104.503906 282.378906 104.933594 C 283.792969 105.363281 285.183594 105.863281 286.550781 106.429688 C 287.917969 106.996094 289.253906 107.625 290.558594 108.324219 C 291.863281 109.019531 293.128906 109.78125 294.359375 110.601562 C 295.589844 111.425781 296.777344 112.304688 297.917969 113.242188 C 299.0625 114.183594 300.15625 115.175781 301.203125 116.222656 C 302.25 117.269531 303.242188 118.363281 304.179688 119.507812 C 305.117188 120.648438 306 121.835938 306.820312 123.066406 C 307.640625 124.296875 308.402344 125.566406 309.097656 126.871094 C 309.796875 128.175781 310.429688 129.511719 310.996094 130.878906 C 311.5625 132.246094 312.058594 133.636719 312.488281 135.050781 C 312.917969 136.46875 313.277344 137.902344 313.566406 139.351562 C 313.851562 140.804688 314.070312 142.265625 314.214844 143.738281 C 314.359375 145.210938 314.433594 146.6875 314.433594 148.167969 Z M 314.433594 148.167969 " fill-opacity="1" fill-rule="nonzero"/></svg>